<mxfile host="app.diagrams.net" modified="2021-01-15T16:57:19.984Z" agent="5.0 (Windows NT 10.0; Win64; x64) AppleWebKit/537.36 (KHTML, like Gecko) Chrome/87.0.4280.141 Safari/537.36" etag="roeJns_oJNYTPF3mchND" version="14.2.3" type="github">
  <diagram id="HmRCTQkS-5NomYBEFhoA" name="Page-1">
    <mxGraphModel dx="6200" dy="3286" grid="1" gridSize="10" guides="1" tooltips="1" connect="1" arrows="1" fold="1" page="1" pageScale="1" pageWidth="2339" pageHeight="3300" math="0" shadow="0">
      <root>
        <mxCell id="0" />
        <mxCell id="1" parent="0" />
        <mxCell id="SvcVYTK96wIkbt7EMnuK-1" value="" style="rounded=1;whiteSpace=wrap;html=1;" parent="1" vertex="1">
          <mxGeometry x="1200" y="420" width="90" height="40" as="geometry" />
        </mxCell>
        <mxCell id="SvcVYTK96wIkbt7EMnuK-2" value="&lt;span style=&quot;font-size: 14px&quot;&gt;START&lt;/span&gt;" style="text;html=1;strokeColor=none;fillColor=none;align=center;verticalAlign=middle;whiteSpace=wrap;rounded=0;" parent="1" vertex="1">
          <mxGeometry x="1200" y="430" width="90" height="20" as="geometry" />
        </mxCell>
        <mxCell id="SvcVYTK96wIkbt7EMnuK-3" value="" style="endArrow=classic;html=1;exitX=0.5;exitY=1;exitDx=0;exitDy=0;" parent="1" source="SvcVYTK96wIkbt7EMnuK-1" edge="1">
          <mxGeometry width="50" height="50" relative="1" as="geometry">
            <mxPoint x="1230" y="530" as="sourcePoint" />
            <mxPoint x="1245" y="500" as="targetPoint" />
            <Array as="points">
              <mxPoint x="1245" y="480" />
            </Array>
          </mxGeometry>
        </mxCell>
        <mxCell id="SvcVYTK96wIkbt7EMnuK-4" value="" style="shape=hexagon;perimeter=hexagonPerimeter2;whiteSpace=wrap;html=1;fixedSize=1;" parent="1" vertex="1">
          <mxGeometry x="1185" y="500" width="120" height="80" as="geometry" />
        </mxCell>
        <mxCell id="SvcVYTK96wIkbt7EMnuK-5" value="&lt;span style=&quot;font-size: 13px&quot;&gt;Inisialisasi int ukuran, baris, kolom&lt;/span&gt;" style="text;html=1;strokeColor=none;fillColor=none;align=center;verticalAlign=middle;whiteSpace=wrap;rounded=0;" parent="1" vertex="1">
          <mxGeometry x="1210" y="500" width="70" height="80" as="geometry" />
        </mxCell>
        <mxCell id="SvcVYTK96wIkbt7EMnuK-6" value="" style="endArrow=classic;html=1;exitX=0.5;exitY=1;exitDx=0;exitDy=0;" parent="1" source="SvcVYTK96wIkbt7EMnuK-5" edge="1">
          <mxGeometry width="50" height="50" relative="1" as="geometry">
            <mxPoint x="1230" y="670" as="sourcePoint" />
            <mxPoint x="1245" y="620" as="targetPoint" />
          </mxGeometry>
        </mxCell>
        <mxCell id="SvcVYTK96wIkbt7EMnuK-7" value="" style="shape=parallelogram;perimeter=parallelogramPerimeter;whiteSpace=wrap;html=1;fixedSize=1;" parent="1" vertex="1">
          <mxGeometry x="1135" y="620" width="220" height="80" as="geometry" />
        </mxCell>
        <mxCell id="SvcVYTK96wIkbt7EMnuK-8" value="&lt;span style=&quot;font-size: 14px&quot;&gt;Output :Algoritma Brute-Force&lt;/span&gt;&lt;br&gt;&lt;span style=&quot;font-size: 14px&quot;&gt;&amp;nbsp;Input : Jumlah Data&amp;nbsp;&lt;/span&gt;" style="text;html=1;strokeColor=none;fillColor=none;align=center;verticalAlign=middle;whiteSpace=wrap;rounded=0;" parent="1" vertex="1">
          <mxGeometry x="1155" y="620" width="180" height="80" as="geometry" />
        </mxCell>
        <mxCell id="SvcVYTK96wIkbt7EMnuK-9" value="" style="endArrow=classic;html=1;exitX=0.5;exitY=1;exitDx=0;exitDy=0;" parent="1" source="SvcVYTK96wIkbt7EMnuK-8" edge="1">
          <mxGeometry width="50" height="50" relative="1" as="geometry">
            <mxPoint x="1220" y="770" as="sourcePoint" />
            <mxPoint x="1245" y="740" as="targetPoint" />
          </mxGeometry>
        </mxCell>
        <mxCell id="SvcVYTK96wIkbt7EMnuK-10" value="" style="rounded=0;whiteSpace=wrap;html=1;" parent="1" vertex="1">
          <mxGeometry x="1215" y="740" width="60" height="30" as="geometry" />
        </mxCell>
        <mxCell id="SvcVYTK96wIkbt7EMnuK-11" value="&lt;font style=&quot;font-size: 14px&quot;&gt;i = 0&lt;/font&gt;" style="text;html=1;strokeColor=none;fillColor=none;align=center;verticalAlign=middle;whiteSpace=wrap;rounded=0;" parent="1" vertex="1">
          <mxGeometry x="1225" y="745" width="40" height="20" as="geometry" />
        </mxCell>
        <mxCell id="SvcVYTK96wIkbt7EMnuK-12" value="" style="endArrow=classic;html=1;exitX=0.5;exitY=1;exitDx=0;exitDy=0;" parent="1" source="SvcVYTK96wIkbt7EMnuK-10" edge="1">
          <mxGeometry width="50" height="50" relative="1" as="geometry">
            <mxPoint x="1230" y="850" as="sourcePoint" />
            <mxPoint x="1245" y="810" as="targetPoint" />
          </mxGeometry>
        </mxCell>
        <mxCell id="SvcVYTK96wIkbt7EMnuK-13" value="" style="rhombus;whiteSpace=wrap;html=1;" parent="1" vertex="1">
          <mxGeometry x="1210" y="810" width="71.25" height="40" as="geometry" />
        </mxCell>
        <mxCell id="SvcVYTK96wIkbt7EMnuK-14" value="&lt;span style=&quot;font-size: 14px&quot;&gt;i &amp;lt; baris&lt;/span&gt;" style="text;html=1;strokeColor=none;fillColor=none;align=center;verticalAlign=middle;whiteSpace=wrap;rounded=0;" parent="1" vertex="1">
          <mxGeometry x="1215.63" y="820" width="60" height="20" as="geometry" />
        </mxCell>
        <mxCell id="SvcVYTK96wIkbt7EMnuK-15" value="" style="endArrow=classic;html=1;exitX=0.5;exitY=1;exitDx=0;exitDy=0;" parent="1" source="SvcVYTK96wIkbt7EMnuK-13" edge="1">
          <mxGeometry width="50" height="50" relative="1" as="geometry">
            <mxPoint x="1230" y="930" as="sourcePoint" />
            <mxPoint x="1246" y="890" as="targetPoint" />
          </mxGeometry>
        </mxCell>
        <mxCell id="SvcVYTK96wIkbt7EMnuK-18" value="" style="rounded=0;whiteSpace=wrap;html=1;" parent="1" vertex="1">
          <mxGeometry x="1216" y="890" width="64" height="30" as="geometry" />
        </mxCell>
        <mxCell id="SvcVYTK96wIkbt7EMnuK-19" value="&lt;font style=&quot;font-size: 14px&quot;&gt;j = 1&lt;/font&gt;" style="text;html=1;strokeColor=none;fillColor=none;align=center;verticalAlign=middle;whiteSpace=wrap;rounded=0;" parent="1" vertex="1">
          <mxGeometry x="1228" y="895" width="40" height="20" as="geometry" />
        </mxCell>
        <mxCell id="SvcVYTK96wIkbt7EMnuK-20" value="" style="endArrow=classic;html=1;exitX=0.5;exitY=1;exitDx=0;exitDy=0;" parent="1" source="SvcVYTK96wIkbt7EMnuK-18" edge="1">
          <mxGeometry width="50" height="50" relative="1" as="geometry">
            <mxPoint x="1230" y="1010" as="sourcePoint" />
            <mxPoint x="1248" y="960" as="targetPoint" />
          </mxGeometry>
        </mxCell>
        <mxCell id="SvcVYTK96wIkbt7EMnuK-21" value="" style="rhombus;whiteSpace=wrap;html=1;" parent="1" vertex="1">
          <mxGeometry x="1197" y="960" width="102" height="50" as="geometry" />
        </mxCell>
        <mxCell id="SvcVYTK96wIkbt7EMnuK-22" value="&lt;font style=&quot;font-size: 14px&quot;&gt;j &amp;lt; kolom&lt;/font&gt;" style="text;html=1;strokeColor=none;fillColor=none;align=center;verticalAlign=middle;whiteSpace=wrap;rounded=0;" parent="1" vertex="1">
          <mxGeometry x="1212" y="975" width="72" height="20" as="geometry" />
        </mxCell>
        <mxCell id="SvcVYTK96wIkbt7EMnuK-24" value="" style="endArrow=classic;html=1;exitX=0.5;exitY=1;exitDx=0;exitDy=0;" parent="1" source="SvcVYTK96wIkbt7EMnuK-21" edge="1">
          <mxGeometry width="50" height="50" relative="1" as="geometry">
            <mxPoint x="1230" y="1090" as="sourcePoint" />
            <mxPoint x="1248" y="1050" as="targetPoint" />
          </mxGeometry>
        </mxCell>
        <mxCell id="SvcVYTK96wIkbt7EMnuK-25" value="" style="rounded=0;whiteSpace=wrap;html=1;" parent="1" vertex="1">
          <mxGeometry x="1218" y="1050" width="60" height="30" as="geometry" />
        </mxCell>
        <mxCell id="SvcVYTK96wIkbt7EMnuK-26" value="" style="rounded=0;whiteSpace=wrap;html=1;" parent="1" vertex="1">
          <mxGeometry x="1218" y="1120" width="60" height="30" as="geometry" />
        </mxCell>
        <mxCell id="SvcVYTK96wIkbt7EMnuK-27" value="&lt;font style=&quot;font-size: 14px&quot;&gt;j++&lt;/font&gt;" style="text;html=1;strokeColor=none;fillColor=none;align=center;verticalAlign=middle;whiteSpace=wrap;rounded=0;" parent="1" vertex="1">
          <mxGeometry x="1228" y="1055" width="40" height="20" as="geometry" />
        </mxCell>
        <mxCell id="SvcVYTK96wIkbt7EMnuK-28" value="&lt;font style=&quot;font-size: 14px&quot;&gt;i++&lt;/font&gt;" style="text;html=1;strokeColor=none;fillColor=none;align=center;verticalAlign=middle;whiteSpace=wrap;rounded=0;" parent="1" vertex="1">
          <mxGeometry x="1228" y="1125" width="40" height="20" as="geometry" />
        </mxCell>
        <mxCell id="SvcVYTK96wIkbt7EMnuK-29" value="" style="endArrow=classic;html=1;exitX=0;exitY=0.5;exitDx=0;exitDy=0;entryX=0;entryY=0.5;entryDx=0;entryDy=0;" parent="1" source="SvcVYTK96wIkbt7EMnuK-21" target="SvcVYTK96wIkbt7EMnuK-26" edge="1">
          <mxGeometry width="50" height="50" relative="1" as="geometry">
            <mxPoint x="1130" y="1100" as="sourcePoint" />
            <mxPoint x="1197" y="1140" as="targetPoint" />
            <Array as="points">
              <mxPoint x="1170" y="985" />
              <mxPoint x="1170" y="1135" />
            </Array>
          </mxGeometry>
        </mxCell>
        <mxCell id="SvcVYTK96wIkbt7EMnuK-30" value="" style="endArrow=classic;html=1;exitX=1;exitY=0.5;exitDx=0;exitDy=0;entryX=1;entryY=0.5;entryDx=0;entryDy=0;" parent="1" source="SvcVYTK96wIkbt7EMnuK-25" target="SvcVYTK96wIkbt7EMnuK-21" edge="1">
          <mxGeometry width="50" height="50" relative="1" as="geometry">
            <mxPoint x="1290" y="1100" as="sourcePoint" />
            <mxPoint x="1340" y="1050" as="targetPoint" />
            <Array as="points">
              <mxPoint x="1320" y="1065" />
              <mxPoint x="1320" y="985" />
            </Array>
          </mxGeometry>
        </mxCell>
        <mxCell id="SvcVYTK96wIkbt7EMnuK-31" value="" style="endArrow=classic;html=1;exitX=1;exitY=0.5;exitDx=0;exitDy=0;entryX=1;entryY=0.5;entryDx=0;entryDy=0;" parent="1" source="SvcVYTK96wIkbt7EMnuK-26" target="SvcVYTK96wIkbt7EMnuK-13" edge="1">
          <mxGeometry width="50" height="50" relative="1" as="geometry">
            <mxPoint x="1290" y="1150" as="sourcePoint" />
            <mxPoint x="1340" y="1100" as="targetPoint" />
            <Array as="points">
              <mxPoint x="1340" y="1135" />
              <mxPoint x="1340" y="830" />
            </Array>
          </mxGeometry>
        </mxCell>
        <mxCell id="SvcVYTK96wIkbt7EMnuK-32" value="" style="shape=parallelogram;perimeter=parallelogramPerimeter;whiteSpace=wrap;html=1;fixedSize=1;" parent="1" vertex="1">
          <mxGeometry x="1188" y="1180" width="120" height="60" as="geometry" />
        </mxCell>
        <mxCell id="SvcVYTK96wIkbt7EMnuK-33" value="&lt;span style=&quot;font-size: 14px&quot;&gt;Input : Nama &amp;amp; NIM&lt;/span&gt;" style="text;html=1;strokeColor=none;fillColor=none;align=center;verticalAlign=middle;whiteSpace=wrap;rounded=0;" parent="1" vertex="1">
          <mxGeometry x="1210" y="1180" width="80" height="60" as="geometry" />
        </mxCell>
        <mxCell id="SvcVYTK96wIkbt7EMnuK-34" value="" style="endArrow=classic;html=1;exitX=0;exitY=0.5;exitDx=0;exitDy=0;entryX=0;entryY=0.5;entryDx=0;entryDy=0;" parent="1" source="SvcVYTK96wIkbt7EMnuK-13" target="SvcVYTK96wIkbt7EMnuK-32" edge="1">
          <mxGeometry width="50" height="50" relative="1" as="geometry">
            <mxPoint x="1100" y="1170" as="sourcePoint" />
            <mxPoint x="1150" y="1120" as="targetPoint" />
            <Array as="points">
              <mxPoint x="1140" y="830" />
              <mxPoint x="1140" y="1210" />
            </Array>
          </mxGeometry>
        </mxCell>
        <mxCell id="SvcVYTK96wIkbt7EMnuK-35" value="" style="endArrow=classic;html=1;exitX=0.5;exitY=1;exitDx=0;exitDy=0;" parent="1" source="SvcVYTK96wIkbt7EMnuK-33" edge="1">
          <mxGeometry width="50" height="50" relative="1" as="geometry">
            <mxPoint x="1220" y="1330" as="sourcePoint" />
            <mxPoint x="1250" y="1280" as="targetPoint" />
          </mxGeometry>
        </mxCell>
        <mxCell id="SvcVYTK96wIkbt7EMnuK-37" value="" style="rounded=0;whiteSpace=wrap;html=1;" parent="1" vertex="1">
          <mxGeometry x="1218" y="1280" width="60" height="30" as="geometry" />
        </mxCell>
        <mxCell id="SvcVYTK96wIkbt7EMnuK-39" value="" style="rhombus;whiteSpace=wrap;html=1;" parent="1" vertex="1">
          <mxGeometry x="1197" y="1350" width="102" height="50" as="geometry" />
        </mxCell>
        <mxCell id="SvcVYTK96wIkbt7EMnuK-40" value="" style="rounded=0;whiteSpace=wrap;html=1;" parent="1" vertex="1">
          <mxGeometry x="1204" y="1440" width="92" height="30" as="geometry" />
        </mxCell>
        <mxCell id="SvcVYTK96wIkbt7EMnuK-41" value="" style="rhombus;whiteSpace=wrap;html=1;" parent="1" vertex="1">
          <mxGeometry x="1197" y="1510" width="102" height="50" as="geometry" />
        </mxCell>
        <mxCell id="SvcVYTK96wIkbt7EMnuK-42" value="" style="rounded=0;whiteSpace=wrap;html=1;" parent="1" vertex="1">
          <mxGeometry x="1215" y="2020" width="60" height="30" as="geometry" />
        </mxCell>
        <mxCell id="SvcVYTK96wIkbt7EMnuK-43" value="" style="rounded=0;whiteSpace=wrap;html=1;" parent="1" vertex="1">
          <mxGeometry x="1215" y="2090" width="60" height="30" as="geometry" />
        </mxCell>
        <mxCell id="SvcVYTK96wIkbt7EMnuK-44" value="&lt;span style=&quot;font-size: 14px&quot;&gt;i = 1&lt;/span&gt;" style="text;html=1;strokeColor=none;fillColor=none;align=center;verticalAlign=middle;whiteSpace=wrap;rounded=0;" parent="1" vertex="1">
          <mxGeometry x="1228" y="1285" width="40" height="20" as="geometry" />
        </mxCell>
        <mxCell id="SvcVYTK96wIkbt7EMnuK-45" value="&lt;span style=&quot;font-size: 14px&quot;&gt;i &amp;lt; baris&lt;/span&gt;" style="text;html=1;strokeColor=none;fillColor=none;align=center;verticalAlign=middle;whiteSpace=wrap;rounded=0;" parent="1" vertex="1">
          <mxGeometry x="1219.63" y="1365" width="52" height="20" as="geometry" />
        </mxCell>
        <mxCell id="SvcVYTK96wIkbt7EMnuK-46" value="&lt;span style=&quot;font-size: 14px&quot;&gt;j = baris - 1&lt;/span&gt;" style="text;html=1;strokeColor=none;fillColor=none;align=center;verticalAlign=middle;whiteSpace=wrap;rounded=0;" parent="1" vertex="1">
          <mxGeometry x="1213.5" y="1445" width="73" height="20" as="geometry" />
        </mxCell>
        <mxCell id="SvcVYTK96wIkbt7EMnuK-47" value="&lt;font style=&quot;font-size: 14px&quot;&gt;j &amp;gt;= i&lt;/font&gt;" style="text;html=1;strokeColor=none;fillColor=none;align=center;verticalAlign=middle;whiteSpace=wrap;rounded=0;" parent="1" vertex="1">
          <mxGeometry x="1226" y="1525" width="40" height="20" as="geometry" />
        </mxCell>
        <mxCell id="SvcVYTK96wIkbt7EMnuK-48" value="&lt;font style=&quot;font-size: 14px&quot;&gt;j--&lt;/font&gt;" style="text;html=1;strokeColor=none;fillColor=none;align=center;verticalAlign=middle;whiteSpace=wrap;rounded=0;" parent="1" vertex="1">
          <mxGeometry x="1225" y="2025" width="40" height="20" as="geometry" />
        </mxCell>
        <mxCell id="SvcVYTK96wIkbt7EMnuK-49" value="&lt;span style=&quot;font-size: 14px&quot;&gt;i++&lt;/span&gt;" style="text;html=1;strokeColor=none;fillColor=none;align=center;verticalAlign=middle;whiteSpace=wrap;rounded=0;" parent="1" vertex="1">
          <mxGeometry x="1230" y="2095" width="30" height="20" as="geometry" />
        </mxCell>
        <mxCell id="SvcVYTK96wIkbt7EMnuK-52" value="" style="endArrow=classic;html=1;exitX=0.5;exitY=1;exitDx=0;exitDy=0;entryX=0.5;entryY=0;entryDx=0;entryDy=0;" parent="1" source="SvcVYTK96wIkbt7EMnuK-37" target="SvcVYTK96wIkbt7EMnuK-39" edge="1">
          <mxGeometry width="50" height="50" relative="1" as="geometry">
            <mxPoint x="1360" y="1380" as="sourcePoint" />
            <mxPoint x="1410" y="1330" as="targetPoint" />
          </mxGeometry>
        </mxCell>
        <mxCell id="SvcVYTK96wIkbt7EMnuK-53" value="" style="endArrow=classic;html=1;exitX=0.5;exitY=1;exitDx=0;exitDy=0;entryX=0.478;entryY=0;entryDx=0;entryDy=0;entryPerimeter=0;" parent="1" source="SvcVYTK96wIkbt7EMnuK-39" edge="1" target="SvcVYTK96wIkbt7EMnuK-40">
          <mxGeometry width="50" height="50" relative="1" as="geometry">
            <mxPoint x="1350" y="1470" as="sourcePoint" />
            <mxPoint x="1250" y="1440" as="targetPoint" />
          </mxGeometry>
        </mxCell>
        <mxCell id="SvcVYTK96wIkbt7EMnuK-54" value="" style="endArrow=classic;html=1;entryX=0.5;entryY=0;entryDx=0;entryDy=0;" parent="1" target="SvcVYTK96wIkbt7EMnuK-41" edge="1">
          <mxGeometry width="50" height="50" relative="1" as="geometry">
            <mxPoint x="1248" y="1470" as="sourcePoint" />
            <mxPoint x="1430" y="1480" as="targetPoint" />
          </mxGeometry>
        </mxCell>
        <mxCell id="SvcVYTK96wIkbt7EMnuK-57" value="" style="rhombus;whiteSpace=wrap;html=1;" parent="1" vertex="1">
          <mxGeometry x="1133" y="1605" width="230" height="80" as="geometry" />
        </mxCell>
        <mxCell id="SvcVYTK96wIkbt7EMnuK-58" value="&lt;span style=&quot;font-size: 14px&quot;&gt;array[j][1].compareTo(array[j - 1][1]) &amp;lt; 0&lt;/span&gt;" style="text;html=1;strokeColor=none;fillColor=none;align=center;verticalAlign=middle;whiteSpace=wrap;rounded=0;" parent="1" vertex="1">
          <mxGeometry x="1185" y="1630" width="135" height="30" as="geometry" />
        </mxCell>
        <mxCell id="SvcVYTK96wIkbt7EMnuK-59" value="" style="rounded=0;whiteSpace=wrap;html=1;" parent="1" vertex="1">
          <mxGeometry x="1218" y="1710" width="60" height="30" as="geometry" />
        </mxCell>
        <mxCell id="SvcVYTK96wIkbt7EMnuK-60" value="&lt;span style=&quot;font-size: 14px&quot;&gt;k = 0&lt;/span&gt;" style="text;html=1;strokeColor=none;fillColor=none;align=center;verticalAlign=middle;whiteSpace=wrap;rounded=0;" parent="1" vertex="1">
          <mxGeometry x="1228" y="1715" width="40" height="20" as="geometry" />
        </mxCell>
        <mxCell id="SvcVYTK96wIkbt7EMnuK-61" value="" style="rhombus;whiteSpace=wrap;html=1;" parent="1" vertex="1">
          <mxGeometry x="1194" y="1780" width="102" height="50" as="geometry" />
        </mxCell>
        <mxCell id="SvcVYTK96wIkbt7EMnuK-62" value="&lt;span style=&quot;font-size: 14px&quot;&gt;k &amp;lt; kolom&lt;/span&gt;" style="text;html=1;strokeColor=none;fillColor=none;align=center;verticalAlign=middle;whiteSpace=wrap;rounded=0;" parent="1" vertex="1">
          <mxGeometry x="1213.5" y="1795" width="65" height="20" as="geometry" />
        </mxCell>
        <mxCell id="SvcVYTK96wIkbt7EMnuK-63" value="" style="rounded=0;whiteSpace=wrap;html=1;" parent="1" vertex="1">
          <mxGeometry x="1160" y="1860" width="170" height="60" as="geometry" />
        </mxCell>
        <mxCell id="SvcVYTK96wIkbt7EMnuK-64" value="&lt;div&gt;&lt;span style=&quot;font-size: 14px&quot;&gt;String tukar = array[j][k];&lt;/span&gt;&lt;/div&gt;&lt;div&gt;&lt;span style=&quot;font-size: 14px&quot;&gt;&amp;nbsp; &amp;nbsp;array[j][k] = array[j - 1][k];&lt;/span&gt;&lt;/div&gt;&lt;div&gt;&lt;span style=&quot;font-size: 14px&quot;&gt;array[j - 1][k] = tukar;&lt;/span&gt;&lt;/div&gt;" style="text;html=1;strokeColor=none;fillColor=none;align=center;verticalAlign=middle;whiteSpace=wrap;rounded=0;" parent="1" vertex="1">
          <mxGeometry x="1158.13" y="1860" width="175" height="60" as="geometry" />
        </mxCell>
        <mxCell id="SvcVYTK96wIkbt7EMnuK-65" value="" style="rounded=0;whiteSpace=wrap;html=1;" parent="1" vertex="1">
          <mxGeometry x="1215" y="1950" width="60" height="30" as="geometry" />
        </mxCell>
        <mxCell id="SvcVYTK96wIkbt7EMnuK-66" value="&lt;font style=&quot;font-size: 14px&quot;&gt;k++&lt;/font&gt;" style="text;html=1;strokeColor=none;fillColor=none;align=center;verticalAlign=middle;whiteSpace=wrap;rounded=0;" parent="1" vertex="1">
          <mxGeometry x="1225" y="1955" width="40" height="20" as="geometry" />
        </mxCell>
        <mxCell id="SvcVYTK96wIkbt7EMnuK-67" value="" style="endArrow=classic;html=1;exitX=0.5;exitY=1;exitDx=0;exitDy=0;entryX=0.5;entryY=0;entryDx=0;entryDy=0;" parent="1" source="SvcVYTK96wIkbt7EMnuK-41" target="SvcVYTK96wIkbt7EMnuK-57" edge="1">
          <mxGeometry width="50" height="50" relative="1" as="geometry">
            <mxPoint x="1310" y="1620" as="sourcePoint" />
            <mxPoint x="1360" y="1570" as="targetPoint" />
          </mxGeometry>
        </mxCell>
        <mxCell id="SvcVYTK96wIkbt7EMnuK-68" value="" style="endArrow=classic;html=1;exitX=0.5;exitY=1;exitDx=0;exitDy=0;entryX=0.5;entryY=0;entryDx=0;entryDy=0;" parent="1" source="SvcVYTK96wIkbt7EMnuK-57" target="SvcVYTK96wIkbt7EMnuK-60" edge="1">
          <mxGeometry width="50" height="50" relative="1" as="geometry">
            <mxPoint x="1450" y="1770" as="sourcePoint" />
            <mxPoint x="1500" y="1720" as="targetPoint" />
          </mxGeometry>
        </mxCell>
        <mxCell id="SvcVYTK96wIkbt7EMnuK-69" value="" style="endArrow=classic;html=1;exitX=0.5;exitY=1;exitDx=0;exitDy=0;entryX=0.5;entryY=0;entryDx=0;entryDy=0;" parent="1" source="SvcVYTK96wIkbt7EMnuK-59" target="SvcVYTK96wIkbt7EMnuK-61" edge="1">
          <mxGeometry width="50" height="50" relative="1" as="geometry">
            <mxPoint x="1470" y="1790" as="sourcePoint" />
            <mxPoint x="1520" y="1740" as="targetPoint" />
          </mxGeometry>
        </mxCell>
        <mxCell id="SvcVYTK96wIkbt7EMnuK-70" value="" style="endArrow=classic;html=1;exitX=0.5;exitY=1;exitDx=0;exitDy=0;entryX=0.5;entryY=0;entryDx=0;entryDy=0;" parent="1" source="SvcVYTK96wIkbt7EMnuK-61" target="SvcVYTK96wIkbt7EMnuK-64" edge="1">
          <mxGeometry width="50" height="50" relative="1" as="geometry">
            <mxPoint x="1490" y="1880" as="sourcePoint" />
            <mxPoint x="1540" y="1830" as="targetPoint" />
          </mxGeometry>
        </mxCell>
        <mxCell id="SvcVYTK96wIkbt7EMnuK-71" value="" style="endArrow=classic;html=1;exitX=0.5;exitY=1;exitDx=0;exitDy=0;entryX=0.5;entryY=0;entryDx=0;entryDy=0;" parent="1" source="SvcVYTK96wIkbt7EMnuK-64" target="SvcVYTK96wIkbt7EMnuK-65" edge="1">
          <mxGeometry width="50" height="50" relative="1" as="geometry">
            <mxPoint x="1410" y="1970" as="sourcePoint" />
            <mxPoint x="1460" y="1920" as="targetPoint" />
          </mxGeometry>
        </mxCell>
        <mxCell id="SvcVYTK96wIkbt7EMnuK-76" value="" style="endArrow=classic;html=1;exitX=1;exitY=0.5;exitDx=0;exitDy=0;entryX=1;entryY=0.5;entryDx=0;entryDy=0;" parent="1" source="SvcVYTK96wIkbt7EMnuK-65" target="SvcVYTK96wIkbt7EMnuK-61" edge="1">
          <mxGeometry width="50" height="50" relative="1" as="geometry">
            <mxPoint x="1280" y="2000" as="sourcePoint" />
            <mxPoint x="1330" y="1950" as="targetPoint" />
            <Array as="points">
              <mxPoint x="1360" y="1965" />
              <mxPoint x="1360" y="1805" />
            </Array>
          </mxGeometry>
        </mxCell>
        <mxCell id="SvcVYTK96wIkbt7EMnuK-78" value="" style="endArrow=classic;html=1;exitX=0;exitY=0.5;exitDx=0;exitDy=0;entryX=0;entryY=0.5;entryDx=0;entryDy=0;" parent="1" source="SvcVYTK96wIkbt7EMnuK-61" target="SvcVYTK96wIkbt7EMnuK-42" edge="1">
          <mxGeometry width="50" height="50" relative="1" as="geometry">
            <mxPoint x="1090" y="2010" as="sourcePoint" />
            <mxPoint x="1140" y="1960" as="targetPoint" />
            <Array as="points">
              <mxPoint x="1130" y="1805" />
              <mxPoint x="1130" y="2035" />
            </Array>
          </mxGeometry>
        </mxCell>
        <mxCell id="SvcVYTK96wIkbt7EMnuK-81" value="" style="endArrow=classic;html=1;exitX=0;exitY=0.5;exitDx=0;exitDy=0;entryX=0;entryY=0.5;entryDx=0;entryDy=0;" parent="1" source="SvcVYTK96wIkbt7EMnuK-57" target="SvcVYTK96wIkbt7EMnuK-42" edge="1">
          <mxGeometry width="50" height="50" relative="1" as="geometry">
            <mxPoint x="1030" y="1990" as="sourcePoint" />
            <mxPoint x="1210" y="2040" as="targetPoint" />
            <Array as="points">
              <mxPoint x="1090" y="1645" />
              <mxPoint x="1090" y="2035" />
            </Array>
          </mxGeometry>
        </mxCell>
        <mxCell id="SvcVYTK96wIkbt7EMnuK-82" value="" style="endArrow=classic;html=1;exitX=1;exitY=0.5;exitDx=0;exitDy=0;entryX=1;entryY=0.5;entryDx=0;entryDy=0;" parent="1" source="SvcVYTK96wIkbt7EMnuK-42" target="SvcVYTK96wIkbt7EMnuK-41" edge="1">
          <mxGeometry width="50" height="50" relative="1" as="geometry">
            <mxPoint x="1310" y="2070" as="sourcePoint" />
            <mxPoint x="1360" y="2020" as="targetPoint" />
            <Array as="points">
              <mxPoint x="1390" y="2035" />
              <mxPoint x="1390" y="1535" />
            </Array>
          </mxGeometry>
        </mxCell>
        <mxCell id="SvcVYTK96wIkbt7EMnuK-83" value="" style="endArrow=classic;html=1;exitX=0;exitY=0.5;exitDx=0;exitDy=0;entryX=0;entryY=0.5;entryDx=0;entryDy=0;" parent="1" source="SvcVYTK96wIkbt7EMnuK-41" target="SvcVYTK96wIkbt7EMnuK-43" edge="1">
          <mxGeometry width="50" height="50" relative="1" as="geometry">
            <mxPoint x="1120" y="1600" as="sourcePoint" />
            <mxPoint x="1170" y="1550" as="targetPoint" />
            <Array as="points">
              <mxPoint x="1060" y="1535" />
              <mxPoint x="1060" y="2105" />
            </Array>
          </mxGeometry>
        </mxCell>
        <mxCell id="SvcVYTK96wIkbt7EMnuK-84" value="" style="endArrow=classic;html=1;exitX=1;exitY=0.5;exitDx=0;exitDy=0;entryX=1;entryY=0.5;entryDx=0;entryDy=0;" parent="1" source="SvcVYTK96wIkbt7EMnuK-43" target="SvcVYTK96wIkbt7EMnuK-39" edge="1">
          <mxGeometry width="50" height="50" relative="1" as="geometry">
            <mxPoint x="1310" y="2140" as="sourcePoint" />
            <mxPoint x="1360" y="2090" as="targetPoint" />
            <Array as="points">
              <mxPoint x="1420" y="2105" />
              <mxPoint x="1420" y="1375" />
            </Array>
          </mxGeometry>
        </mxCell>
        <mxCell id="SvcVYTK96wIkbt7EMnuK-85" value="&lt;font style=&quot;font-size: 14px&quot;&gt;Output : Setelah Diurutkan dengan Bubble Sort&lt;/font&gt;" style="shape=parallelogram;perimeter=parallelogramPerimeter;whiteSpace=wrap;html=1;fixedSize=1;" parent="1" vertex="1">
          <mxGeometry x="1135" y="2160" width="200" height="60" as="geometry" />
        </mxCell>
        <mxCell id="SvcVYTK96wIkbt7EMnuK-87" value="" style="endArrow=classic;html=1;exitX=0;exitY=0.5;exitDx=0;exitDy=0;entryX=0;entryY=0.5;entryDx=0;entryDy=0;" parent="1" source="SvcVYTK96wIkbt7EMnuK-39" target="SvcVYTK96wIkbt7EMnuK-85" edge="1">
          <mxGeometry width="50" height="50" relative="1" as="geometry">
            <mxPoint x="990" y="2130" as="sourcePoint" />
            <mxPoint x="1040" y="2080" as="targetPoint" />
            <Array as="points">
              <mxPoint x="1040" y="1375" />
              <mxPoint x="1040" y="2190" />
            </Array>
          </mxGeometry>
        </mxCell>
        <mxCell id="SvcVYTK96wIkbt7EMnuK-88" value="&lt;font style=&quot;font-size: 14px&quot;&gt;i = 0&lt;/font&gt;" style="rounded=0;whiteSpace=wrap;html=1;" parent="1" vertex="1">
          <mxGeometry x="1205" y="2270" width="60" height="30" as="geometry" />
        </mxCell>
        <mxCell id="SvcVYTK96wIkbt7EMnuK-89" value="&lt;font style=&quot;font-size: 14px&quot;&gt;i &amp;lt; baris&lt;/font&gt;" style="rhombus;whiteSpace=wrap;html=1;" parent="1" vertex="1">
          <mxGeometry x="1184" y="2330" width="102" height="50" as="geometry" />
        </mxCell>
        <mxCell id="SvcVYTK96wIkbt7EMnuK-90" value="&lt;font style=&quot;font-size: 14px&quot;&gt;j = 0&lt;/font&gt;" style="rounded=0;whiteSpace=wrap;html=1;" parent="1" vertex="1">
          <mxGeometry x="1206" y="2410" width="60" height="30" as="geometry" />
        </mxCell>
        <mxCell id="SvcVYTK96wIkbt7EMnuK-91" value="&lt;font style=&quot;font-size: 14px&quot;&gt;j &amp;lt; kolom&lt;/font&gt;" style="rhombus;whiteSpace=wrap;html=1;" parent="1" vertex="1">
          <mxGeometry x="1185" y="2480" width="102" height="50" as="geometry" />
        </mxCell>
        <mxCell id="SvcVYTK96wIkbt7EMnuK-92" value="&lt;font style=&quot;font-size: 14px&quot;&gt;j++&lt;/font&gt;" style="rounded=0;whiteSpace=wrap;html=1;" parent="1" vertex="1">
          <mxGeometry x="1205" y="2560" width="60" height="30" as="geometry" />
        </mxCell>
        <mxCell id="SvcVYTK96wIkbt7EMnuK-93" value="&lt;font style=&quot;font-size: 14px&quot;&gt;i++&lt;/font&gt;" style="rounded=0;whiteSpace=wrap;html=1;" parent="1" vertex="1">
          <mxGeometry x="1205" y="2630" width="60" height="30" as="geometry" />
        </mxCell>
        <mxCell id="SvcVYTK96wIkbt7EMnuK-94" value="" style="endArrow=classic;html=1;exitX=0.5;exitY=1;exitDx=0;exitDy=0;entryX=0.5;entryY=0;entryDx=0;entryDy=0;" parent="1" source="SvcVYTK96wIkbt7EMnuK-85" target="SvcVYTK96wIkbt7EMnuK-88" edge="1">
          <mxGeometry width="50" height="50" relative="1" as="geometry">
            <mxPoint x="1320" y="2350" as="sourcePoint" />
            <mxPoint x="1370" y="2300" as="targetPoint" />
          </mxGeometry>
        </mxCell>
        <mxCell id="SvcVYTK96wIkbt7EMnuK-95" value="" style="endArrow=classic;html=1;exitX=0.5;exitY=1;exitDx=0;exitDy=0;entryX=0.5;entryY=0;entryDx=0;entryDy=0;" parent="1" source="SvcVYTK96wIkbt7EMnuK-88" target="SvcVYTK96wIkbt7EMnuK-89" edge="1">
          <mxGeometry width="50" height="50" relative="1" as="geometry">
            <mxPoint x="1430" y="2390" as="sourcePoint" />
            <mxPoint x="1480" y="2340" as="targetPoint" />
          </mxGeometry>
        </mxCell>
        <mxCell id="SvcVYTK96wIkbt7EMnuK-96" value="" style="endArrow=classic;html=1;exitX=0.5;exitY=1;exitDx=0;exitDy=0;entryX=0.5;entryY=0;entryDx=0;entryDy=0;" parent="1" source="SvcVYTK96wIkbt7EMnuK-89" target="SvcVYTK96wIkbt7EMnuK-90" edge="1">
          <mxGeometry width="50" height="50" relative="1" as="geometry">
            <mxPoint x="1330" y="2470" as="sourcePoint" />
            <mxPoint x="1380" y="2420" as="targetPoint" />
          </mxGeometry>
        </mxCell>
        <mxCell id="SvcVYTK96wIkbt7EMnuK-97" value="" style="endArrow=classic;html=1;exitX=0.5;exitY=1;exitDx=0;exitDy=0;entryX=0.5;entryY=0;entryDx=0;entryDy=0;" parent="1" source="SvcVYTK96wIkbt7EMnuK-90" target="SvcVYTK96wIkbt7EMnuK-91" edge="1">
          <mxGeometry width="50" height="50" relative="1" as="geometry">
            <mxPoint x="1390" y="2530" as="sourcePoint" />
            <mxPoint x="1440" y="2480" as="targetPoint" />
          </mxGeometry>
        </mxCell>
        <mxCell id="SvcVYTK96wIkbt7EMnuK-98" value="" style="endArrow=classic;html=1;exitX=0.5;exitY=1;exitDx=0;exitDy=0;" parent="1" source="SvcVYTK96wIkbt7EMnuK-91" edge="1">
          <mxGeometry width="50" height="50" relative="1" as="geometry">
            <mxPoint x="1350" y="2590" as="sourcePoint" />
            <mxPoint x="1236" y="2558" as="targetPoint" />
          </mxGeometry>
        </mxCell>
        <mxCell id="SvcVYTK96wIkbt7EMnuK-100" value="" style="endArrow=classic;html=1;exitX=1;exitY=0.5;exitDx=0;exitDy=0;entryX=1;entryY=0.5;entryDx=0;entryDy=0;" parent="1" source="SvcVYTK96wIkbt7EMnuK-92" target="SvcVYTK96wIkbt7EMnuK-91" edge="1">
          <mxGeometry width="50" height="50" relative="1" as="geometry">
            <mxPoint x="1320" y="2630" as="sourcePoint" />
            <mxPoint x="1370" y="2580" as="targetPoint" />
            <Array as="points">
              <mxPoint x="1320" y="2575" />
              <mxPoint x="1320" y="2505" />
            </Array>
          </mxGeometry>
        </mxCell>
        <mxCell id="SvcVYTK96wIkbt7EMnuK-101" value="" style="endArrow=classic;html=1;exitX=0;exitY=0.5;exitDx=0;exitDy=0;entryX=0;entryY=0.5;entryDx=0;entryDy=0;" parent="1" source="SvcVYTK96wIkbt7EMnuK-91" target="SvcVYTK96wIkbt7EMnuK-93" edge="1">
          <mxGeometry width="50" height="50" relative="1" as="geometry">
            <mxPoint x="1120" y="2720" as="sourcePoint" />
            <mxPoint x="1170" y="2670" as="targetPoint" />
            <Array as="points">
              <mxPoint x="1160" y="2505" />
              <mxPoint x="1160" y="2645" />
            </Array>
          </mxGeometry>
        </mxCell>
        <mxCell id="SvcVYTK96wIkbt7EMnuK-102" value="" style="endArrow=classic;html=1;exitX=1;exitY=0.5;exitDx=0;exitDy=0;entryX=1;entryY=0.5;entryDx=0;entryDy=0;" parent="1" source="SvcVYTK96wIkbt7EMnuK-93" target="SvcVYTK96wIkbt7EMnuK-89" edge="1">
          <mxGeometry width="50" height="50" relative="1" as="geometry">
            <mxPoint x="1310" y="2700" as="sourcePoint" />
            <mxPoint x="1360" y="2650" as="targetPoint" />
            <Array as="points">
              <mxPoint x="1340" y="2645" />
              <mxPoint x="1340" y="2355" />
            </Array>
          </mxGeometry>
        </mxCell>
        <mxCell id="SvcVYTK96wIkbt7EMnuK-103" value="" style="shape=parallelogram;perimeter=parallelogramPerimeter;whiteSpace=wrap;html=1;fixedSize=1;" parent="1" vertex="1">
          <mxGeometry x="1138" y="2700" width="170" height="60" as="geometry" />
        </mxCell>
        <mxCell id="SvcVYTK96wIkbt7EMnuK-104" value="&lt;font style=&quot;font-size: 14px&quot;&gt;Output :&amp;nbsp;array[i][j]&lt;/font&gt;" style="text;html=1;strokeColor=none;fillColor=none;align=center;verticalAlign=middle;whiteSpace=wrap;rounded=0;" parent="1" vertex="1">
          <mxGeometry x="1160" y="2700" width="130" height="60" as="geometry" />
        </mxCell>
        <mxCell id="SvcVYTK96wIkbt7EMnuK-105" value="" style="endArrow=classic;html=1;entryX=0;entryY=0.5;entryDx=0;entryDy=0;exitX=0;exitY=0.5;exitDx=0;exitDy=0;" parent="1" source="SvcVYTK96wIkbt7EMnuK-89" target="SvcVYTK96wIkbt7EMnuK-103" edge="1">
          <mxGeometry width="50" height="50" relative="1" as="geometry">
            <mxPoint x="1050" y="2750" as="sourcePoint" />
            <mxPoint x="1100" y="2700" as="targetPoint" />
            <Array as="points">
              <mxPoint x="1120" y="2355" />
              <mxPoint x="1120" y="2730" />
            </Array>
          </mxGeometry>
        </mxCell>
        <mxCell id="SvcVYTK96wIkbt7EMnuK-106" value="FINISH" style="rounded=1;whiteSpace=wrap;html=1;" parent="1" vertex="1">
          <mxGeometry x="1184" y="2800" width="67" height="30" as="geometry" />
        </mxCell>
        <mxCell id="SvcVYTK96wIkbt7EMnuK-107" value="" style="endArrow=classic;html=1;exitX=0.446;exitY=1.017;exitDx=0;exitDy=0;exitPerimeter=0;entryX=0.5;entryY=0;entryDx=0;entryDy=0;" parent="1" source="SvcVYTK96wIkbt7EMnuK-104" target="SvcVYTK96wIkbt7EMnuK-106" edge="1">
          <mxGeometry width="50" height="50" relative="1" as="geometry">
            <mxPoint x="1320" y="2890" as="sourcePoint" />
            <mxPoint x="1370" y="2840" as="targetPoint" />
          </mxGeometry>
        </mxCell>
        <mxCell id="SvcVYTK96wIkbt7EMnuK-108" value="&lt;span style=&quot;font-size: 14px&quot;&gt;&lt;b&gt;BRUTE FORCE&lt;/b&gt;&lt;/span&gt;" style="text;html=1;strokeColor=none;fillColor=none;align=center;verticalAlign=middle;whiteSpace=wrap;rounded=0;" parent="1" vertex="1">
          <mxGeometry x="1170" y="390" width="140" height="20" as="geometry" />
        </mxCell>
        <mxCell id="etNkZMN2_ybjVxelS7A5-1" value="&lt;span style=&quot;font-size: 14px&quot;&gt;True&lt;/span&gt;" style="text;html=1;strokeColor=none;fillColor=none;align=center;verticalAlign=middle;whiteSpace=wrap;rounded=0;" parent="1" vertex="1">
          <mxGeometry x="1247" y="860" width="40" height="20" as="geometry" />
        </mxCell>
        <mxCell id="etNkZMN2_ybjVxelS7A5-2" value="&lt;span style=&quot;color: rgb(0, 0, 0); font-family: helvetica; font-size: 14px; font-style: normal; font-weight: 400; letter-spacing: normal; text-align: center; text-indent: 0px; text-transform: none; word-spacing: 0px; background-color: rgb(248, 249, 250); display: inline; float: none;&quot;&gt;True&lt;/span&gt;" style="text;whiteSpace=wrap;html=1;" parent="1" vertex="1">
          <mxGeometry x="1255" y="1010" width="50" height="30" as="geometry" />
        </mxCell>
        <mxCell id="etNkZMN2_ybjVxelS7A5-3" value="&lt;span style=&quot;color: rgb(0, 0, 0); font-family: helvetica; font-size: 14px; font-style: normal; font-weight: 400; letter-spacing: normal; text-align: center; text-indent: 0px; text-transform: none; word-spacing: 0px; background-color: rgb(248, 249, 250); display: inline; float: none;&quot;&gt;True&lt;/span&gt;" style="text;whiteSpace=wrap;html=1;" parent="1" vertex="1">
          <mxGeometry x="1255" y="1400" width="50" height="30" as="geometry" />
        </mxCell>
        <mxCell id="etNkZMN2_ybjVxelS7A5-4" value="&lt;span style=&quot;color: rgb(0, 0, 0); font-family: helvetica; font-size: 14px; font-style: normal; font-weight: 400; letter-spacing: normal; text-align: center; text-indent: 0px; text-transform: none; word-spacing: 0px; background-color: rgb(248, 249, 250); display: inline; float: none;&quot;&gt;True&lt;/span&gt;" style="text;whiteSpace=wrap;html=1;" parent="1" vertex="1">
          <mxGeometry x="1251" y="1560" width="50" height="30" as="geometry" />
        </mxCell>
        <mxCell id="etNkZMN2_ybjVxelS7A5-5" value="&lt;span style=&quot;color: rgb(0, 0, 0); font-family: helvetica; font-size: 14px; font-style: normal; font-weight: 400; letter-spacing: normal; text-align: center; text-indent: 0px; text-transform: none; word-spacing: 0px; background-color: rgb(248, 249, 250); display: inline; float: none;&quot;&gt;True&lt;/span&gt;" style="text;whiteSpace=wrap;html=1;" parent="1" vertex="1">
          <mxGeometry x="1249" y="1680" width="50" height="30" as="geometry" />
        </mxCell>
        <mxCell id="etNkZMN2_ybjVxelS7A5-6" value="&lt;span style=&quot;color: rgb(0, 0, 0); font-family: helvetica; font-size: 14px; font-style: normal; font-weight: 400; letter-spacing: normal; text-align: center; text-indent: 0px; text-transform: none; word-spacing: 0px; background-color: rgb(248, 249, 250); display: inline; float: none;&quot;&gt;True&lt;/span&gt;" style="text;whiteSpace=wrap;html=1;" parent="1" vertex="1">
          <mxGeometry x="1249" y="1830" width="50" height="30" as="geometry" />
        </mxCell>
        <mxCell id="etNkZMN2_ybjVxelS7A5-7" value="&lt;span style=&quot;color: rgb(0, 0, 0); font-family: helvetica; font-size: 14px; font-style: normal; font-weight: 400; letter-spacing: normal; text-align: center; text-indent: 0px; text-transform: none; word-spacing: 0px; background-color: rgb(248, 249, 250); display: inline; float: none;&quot;&gt;True&lt;/span&gt;" style="text;whiteSpace=wrap;html=1;" parent="1" vertex="1">
          <mxGeometry x="1240" y="2380" width="50" height="30" as="geometry" />
        </mxCell>
        <mxCell id="etNkZMN2_ybjVxelS7A5-8" value="&lt;span style=&quot;color: rgb(0, 0, 0); font-family: helvetica; font-size: 14px; font-style: normal; font-weight: 400; letter-spacing: normal; text-align: center; text-indent: 0px; text-transform: none; word-spacing: 0px; background-color: rgb(248, 249, 250); display: inline; float: none;&quot;&gt;True&lt;/span&gt;" style="text;whiteSpace=wrap;html=1;" parent="1" vertex="1">
          <mxGeometry x="1240" y="2530" width="50" height="30" as="geometry" />
        </mxCell>
        <mxCell id="etNkZMN2_ybjVxelS7A5-9" value="&lt;span style=&quot;font-size: 14px&quot;&gt;False&lt;/span&gt;" style="text;html=1;strokeColor=none;fillColor=none;align=center;verticalAlign=middle;whiteSpace=wrap;rounded=0;" parent="1" vertex="1">
          <mxGeometry x="1160" y="810" width="40" height="20" as="geometry" />
        </mxCell>
        <mxCell id="etNkZMN2_ybjVxelS7A5-11" value="&lt;span style=&quot;color: rgb(0, 0, 0); font-family: helvetica; font-size: 14px; font-style: normal; font-weight: 400; letter-spacing: normal; text-align: center; text-indent: 0px; text-transform: none; word-spacing: 0px; background-color: rgb(248, 249, 250); display: inline; float: none;&quot;&gt;False&lt;/span&gt;" style="text;whiteSpace=wrap;html=1;" parent="1" vertex="1">
          <mxGeometry x="1160" y="960" width="60" height="30" as="geometry" />
        </mxCell>
        <mxCell id="etNkZMN2_ybjVxelS7A5-12" value="&lt;span style=&quot;color: rgb(0, 0, 0); font-family: helvetica; font-size: 14px; font-style: normal; font-weight: 400; letter-spacing: normal; text-align: center; text-indent: 0px; text-transform: none; word-spacing: 0px; background-color: rgb(248, 249, 250); display: inline; float: none;&quot;&gt;False&lt;/span&gt;" style="text;whiteSpace=wrap;html=1;" parent="1" vertex="1">
          <mxGeometry x="1124" y="1350" width="60" height="30" as="geometry" />
        </mxCell>
        <mxCell id="etNkZMN2_ybjVxelS7A5-13" value="&lt;span style=&quot;color: rgb(0, 0, 0); font-family: helvetica; font-size: 14px; font-style: normal; font-weight: 400; letter-spacing: normal; text-align: center; text-indent: 0px; text-transform: none; word-spacing: 0px; background-color: rgb(248, 249, 250); display: inline; float: none;&quot;&gt;False&lt;/span&gt;" style="text;whiteSpace=wrap;html=1;" parent="1" vertex="1">
          <mxGeometry x="1110" y="1510" width="60" height="30" as="geometry" />
        </mxCell>
        <mxCell id="etNkZMN2_ybjVxelS7A5-14" value="&lt;span style=&quot;color: rgb(0, 0, 0); font-family: helvetica; font-size: 14px; font-style: normal; font-weight: 400; letter-spacing: normal; text-align: center; text-indent: 0px; text-transform: none; word-spacing: 0px; background-color: rgb(248, 249, 250); display: inline; float: none;&quot;&gt;False&lt;/span&gt;" style="text;whiteSpace=wrap;html=1;" parent="1" vertex="1">
          <mxGeometry x="1098.13" y="1620" width="60" height="30" as="geometry" />
        </mxCell>
        <mxCell id="etNkZMN2_ybjVxelS7A5-15" value="&lt;span style=&quot;color: rgb(0, 0, 0); font-family: helvetica; font-size: 14px; font-style: normal; font-weight: 400; letter-spacing: normal; text-align: center; text-indent: 0px; text-transform: none; word-spacing: 0px; background-color: rgb(248, 249, 250); display: inline; float: none;&quot;&gt;False&lt;/span&gt;" style="text;whiteSpace=wrap;html=1;" parent="1" vertex="1">
          <mxGeometry x="1150" y="1780" width="60" height="30" as="geometry" />
        </mxCell>
        <mxCell id="etNkZMN2_ybjVxelS7A5-16" value="&lt;span style=&quot;color: rgb(0, 0, 0); font-family: helvetica; font-size: 14px; font-style: normal; font-weight: 400; letter-spacing: normal; text-align: center; text-indent: 0px; text-transform: none; word-spacing: 0px; background-color: rgb(248, 249, 250); display: inline; float: none;&quot;&gt;False&lt;/span&gt;" style="text;whiteSpace=wrap;html=1;" parent="1" vertex="1">
          <mxGeometry x="1133" y="2330" width="60" height="30" as="geometry" />
        </mxCell>
        <mxCell id="etNkZMN2_ybjVxelS7A5-17" value="&lt;span style=&quot;color: rgb(0, 0, 0); font-family: helvetica; font-size: 14px; font-style: normal; font-weight: 400; letter-spacing: normal; text-align: center; text-indent: 0px; text-transform: none; word-spacing: 0px; background-color: rgb(248, 249, 250); display: inline; float: none;&quot;&gt;False&lt;/span&gt;" style="text;whiteSpace=wrap;html=1;" parent="1" vertex="1">
          <mxGeometry x="1150" y="2480" width="60" height="30" as="geometry" />
        </mxCell>
      </root>
    </mxGraphModel>
  </diagram>
</mxfile>
